<svg xmlns="http://www.w3.org/2000/svg" xmlns:xlink="http://www.w3.org/1999/xlink" viewBox="0 0 220 56"><defs><linearGradient id="a" x1="-194.08" y1="418.49" x2="-193.36" y2="417.55" gradientTransform="matrix(220, 0, 0, -56, 42705, 23433)" gradientUnits="userSpaceOnUse"><stop offset="0" stop-color="#724674"/><stop offset="0.35" stop-color="#ea3552"/><stop offset="1" stop-color="#fad334"/></linearGradient></defs><title>logo</title><path d="M35,55V44.88H11.78V.89H0V55Zm34,1C52.38,56,40.28,44.31,40.28,28S52.38,0,69,0,97.69,11.69,97.69,28,85.58,56,69,56Zm0-10.23c10.13,0,16.64-7.71,16.64-17.77S79.15,10.23,69,10.23,52.3,17.86,52.3,28,58.81,45.77,69,45.77ZM132.61,56a30.58,30.58,0,0,0,23.31-10.14V25.08H129.73V35.14h14.5v6.49a18.44,18.44,0,0,1-11.61,4.14c-10,0-17.3-7.55-17.3-17.77s7.25-17.77,17.3-17.77a15.84,15.84,0,0,1,13,7.06l9.64-5.19C151.14,5.68,144,0,132.61,0c-16.14,0-29.32,10.88-29.32,28S116.47,56,132.61,56Zm58.73,0c-16.64,0-28.75-11.69-28.75-28S174.7,0,191.34,0,220,11.69,220,28,207.89,56,191.34,56Zm0-10.23C201.47,45.77,208,38.06,208,28s-6.51-17.77-16.64-17.77S174.62,17.86,174.62,28,181.12,45.77,191.34,45.77Z" style="fill:url(#a)"/></svg>